<svg xmlns="http://www.w3.org/2000/svg" xmlns:xlink="http://www.w3.org/1999/xlink" viewBox="0 0 797.67 172.05"><defs><style>.cls-1{fill:url(#Unbenannter_Verlauf_2);}.cls-2{fill:url(#Unbenannter_Verlauf_2-2);}.cls-3{fill:url(#Unbenannter_Verlauf_2-3);}.cls-4{fill:url(#Unbenannter_Verlauf_2-4);}.cls-5{fill:url(#Unbenannter_Verlauf_2-5);}.cls-6{fill:url(#Unbenannter_Verlauf_2-6);}.cls-7{fill:url(#Unbenannter_Verlauf_2-7);}.cls-8{fill:url(#Unbenannter_Verlauf_2-8);}.cls-9{fill:url(#Unbenannter_Verlauf_2-9);}.cls-10{fill:url(#Unbenannter_Verlauf_2-10);}</style><linearGradient id="Unbenannter_Verlauf_2" x1="468.07" y1="-567.73" x2="1142.54" y2="-1074.54" gradientTransform="translate(-255.53 836.38)" gradientUnits="userSpaceOnUse"><stop offset="0" stop-color="#5d077b"/><stop offset="1" stop-color="#00054a"/></linearGradient><linearGradient id="Unbenannter_Verlauf_2-2" x1="399.06" y1="-659.58" x2="1073.53" y2="-1166.38" xlink:href="#Unbenannter_Verlauf_2"/><linearGradient id="Unbenannter_Verlauf_2-3" x1="438.17" y1="-607.52" x2="1112.65" y2="-1114.33" xlink:href="#Unbenannter_Verlauf_2"/><linearGradient id="Unbenannter_Verlauf_2-4" x1="512.33" y1="-508.83" x2="1186.8" y2="-1015.63" xlink:href="#Unbenannter_Verlauf_2"/><linearGradient id="Unbenannter_Verlauf_2-5" x1="576.45" y1="-423.5" x2="1250.93" y2="-930.3" xlink:href="#Unbenannter_Verlauf_2"/><linearGradient id="Unbenannter_Verlauf_2-6" x1="536" y1="-477.33" x2="1210.48" y2="-984.13" xlink:href="#Unbenannter_Verlauf_2"/><linearGradient id="Unbenannter_Verlauf_2-7" x1="478.15" y1="-554.32" x2="1152.62" y2="-1061.13" xlink:href="#Unbenannter_Verlauf_2"/><linearGradient id="Unbenannter_Verlauf_2-8" x1="488.64" y1="-540.36" x2="1163.11" y2="-1047.17" xlink:href="#Unbenannter_Verlauf_2"/><linearGradient id="Unbenannter_Verlauf_2-9" x1="340.15" y1="-737.98" x2="1014.62" y2="-1244.78" xlink:href="#Unbenannter_Verlauf_2"/><linearGradient id="Unbenannter_Verlauf_2-10" x1="332.3" y1="-748.43" x2="1006.77" y2="-1255.23" xlink:href="#Unbenannter_Verlauf_2"/></defs><g id="Ebene_2" data-name="Ebene 2"><g id="Ebene_1-2" data-name="Ebene 1"><path class="cls-1" d="M455.92,38.84c-11.62,0-26.48,1.9-36.91,5.48l2.82,15.54c15.27-4.13,32.82-6.2,46.8-2.65V75.4c-20.84,1.09-38.51-2.34-49.72,10.24-5.6,7.94-5.26,32.8,2.75,39,12.06,11,41,6.85,52.62-4.42l5.65,8.83h10.42V65C489.92,43.07,477.83,39.29,455.92,38.84Zm12.71,66.76c-.26,8.88-4.77,9.21-13.77,9.53h-20c-1.42-34.62,2.5-25.36,33.73-26.84Z"/><path class="cls-2" d="M265.19,62.86V35.13c14.06-1.85,33.13-.68,46.62,1.94l2.65-17.13c-30.58-5.27-75.78-13.28-72.94,31.79C239,85.27,271.59,82.56,296.8,85.11v27.37c-17.6,2-36.68,1.28-53.51-3.35L240.11,127c21.56,4.61,62.43,12.06,76.2-9.19,5.33-8.57,5.53-29.82.62-38.67C308.15,62.47,282.69,64.67,265.19,62.86Z"/><path class="cls-3" d="M359.14,112.66V69.92c-1.32-21.17,24-13.9,37.44-11.83l2.29-15.89C379.38,38.61,346,32,339.18,56.85c-4,11.74-4,44.36,0,56.07,4.79,14.87,14.9,17.82,30.73,18.11q17.83,0,30.91-5.48L398.7,110C386.42,114.69,370.28,115.87,359.14,112.66Z"/><polygon class="cls-4" points="567.53 129.08 589.25 129.08 589.25 39.72 567.53 42.73 567.53 129.08"/><path class="cls-5" d="M757.37,38.84c-32.5-1.16-40.88,15-40.27,46.09-.6,31.09,7.77,47.27,40.27,46.1,32.49,1.16,40.88-15,40.26-46.1C798.25,53.7,790.1,37.65,757.37,38.84ZM740.06,113.9C743.16,48,725.59,56.12,774.85,56,771.75,121.91,789.32,113.75,740.06,113.9Z"/><path class="cls-6" d="M693.89,34.33c-8.35-24.61-56.2-13.12-76-15.62V129.08h21.73V91.64h21.36l17.66,37.44h23.49L682.67,88.82C700.84,81,698.85,49.35,693.89,34.33Zm-19.52,33.3c-.21,6.91-4,7.16-11,7.41H639.58V36.72C676,38.23,675.21,27.81,674.37,67.63Z"/><path class="cls-7" d="M578.48,2.11c-9.87.17-12.58,2.73-12.72,12.71.17,10,2.8,12.18,12.72,12.36,10-.17,12.16-2.46,12.36-12.36C590.66,4.9,588.42,2.27,578.48,2.11Z"/><path class="cls-8" d="M539.1,11.64l-21.73,2.65V116.37c-.56,16.68,15.9,16.27,28.79,12.54l1.24-14.66a69.73,69.73,0,0,1-8.3-1.06Z"/><polygon class="cls-9" points="40.52 91.03 0 91.03 0 172.06 81.03 172.06 81.03 131.54 40.52 131.54 40.52 91.03"/><polygon class="cls-10" points="40.52 91.02 81.03 91.02 81.03 131.54 172.05 131.54 172.05 0 40.52 0 40.52 91.02"/></g></g></svg>