<?xml version="1.0" encoding="UTF-8" standalone="no"?>
<svg
   xmlns:dc="http://purl.org/dc/elements/1.1/"
   xmlns:cc="http://creativecommons.org/ns#"
   xmlns:rdf="http://www.w3.org/1999/02/22-rdf-syntax-ns#"
   xmlns:svg="http://www.w3.org/2000/svg"
   xmlns="http://www.w3.org/2000/svg"
   xmlns:sodipodi="http://sodipodi.sourceforge.net/DTD/sodipodi-0.dtd"
   xmlns:inkscape="http://www.inkscape.org/namespaces/inkscape"
   sodipodi:docname="Scaliro_Logo_White.svg"
   inkscape:version="1.0 (4035a4fb49, 2020-05-01)"
   id="svg8"
   version="1.1"
   viewBox="0 0 200.32721 34.955063"
   height="34.955063mm"
   width="200.32721mm">
  <defs
     id="defs2" />
  <sodipodi:namedview
     inkscape:window-maximized="1"
     inkscape:window-y="-8"
     inkscape:window-x="1912"
     inkscape:window-height="1377"
     inkscape:window-width="2560"
     showgrid="false"
     inkscape:document-rotation="0"
     inkscape:current-layer="Ebene_1-2"
     inkscape:document-units="mm"
     inkscape:cy="163.50365"
     inkscape:cx="342.26453"
     inkscape:zoom="0.98994949"
     inkscape:pageshadow="2"
     inkscape:pageopacity="0.0"
     borderopacity="1.0"
     bordercolor="#666666"
     pagecolor="#ffffff"
     id="base" />
  <metadata
     id="metadata5">
    <rdf:RDF>
      <cc:Work
         rdf:about="">
        <dc:format>image/svg+xml</dc:format>
        <dc:type
           rdf:resource="http://purl.org/dc/dcmitype/StillImage" />
        <dc:title></dc:title>
      </cc:Work>
    </rdf:RDF>
  </metadata>
  <g
     transform="translate(-2.7147122,-116.33313)"
     inkscape:label="Layer 2"
     id="layer2"
     inkscape:groupmode="layer" />
  <g
     transform="translate(-2.7147122,-116.33313)"
     id="layer1"
     inkscape:groupmode="layer"
     inkscape:label="Layer 1">
    <g
       transform="matrix(0.26458333,0,0,0.26458333,-8.0062043,116.33313)"
       data-name="Ebene 1"
       id="Ebene_1-2">
      <path
         style="fill:#ffffff;fill-opacity:1"
         id="path833"
         d="M 740.06,113.9 C 743.16,48 725.59,56.12 774.85,56 c -3.1,65.91 14.47,57.75 -34.79,57.9 z m 17.31,17.1 c 32.49,1.16 40.88,-15 40.26,-46.1 0.62,-31.23 -7.53,-47.28 -40.26,-46.09 -32.5,-1.16 -40.88,15 -40.27,46.09 -0.6,31.09 7.77,47.27 40.27,46.1 M 639.58,36.72 c 36.41,1.51 35.63,-8.91 34.79,30.91 -0.21,6.91 -4,7.16 -11,7.41 h -23.79 z m 62.51,92.36 -19.42,-40.26 c 18.17,-7.85 16.18,-39.47 11.22,-54.49 -8.35,-24.61 -56.2,-13.12 -76,-15.62 v 110.37 h 21.73 V 91.64 h 21.36 l 17.66,37.44 z M 578.48,27.18 c 10,-0.17 12.16,-2.46 12.36,-12.36 -0.18,-9.92 -2.42,-12.55 -12.36,-12.71 -9.87,0.17 -12.58,2.73 -12.72,12.71 0.17,10 2.8,12.18 12.72,12.36 m -11,15.55 v 86.35 H 589.2 V 39.72 Z M 539.1,113.19 V 11.64 l -21.73,2.65 v 102.08 c -0.56,16.68 15.9,16.27 28.79,12.54 l 1.24,-14.66 a 69.73,69.73 0 0 1 -8.3,-1.06 m -84.24,1.94 h -20 c -1.42,-34.62 2.5,-25.36 33.73,-26.84 v 17.31 c -0.26,8.88 -4.77,9.21 -13.77,9.53 m 1.06,-76.29 c -11.62,0 -26.48,1.9 -36.91,5.48 l 2.82,15.54 c 15.27,-4.13 32.82,-6.2 46.8,-2.65 V 75.4 c -20.84,1.09 -38.51,-2.34 -49.72,10.24 -5.6,7.94 -5.26,32.8 2.75,39 12.06,11 41,6.85 52.62,-4.42 l 5.65,8.83 h 10.42 V 65 C 489.88,43.09 477.79,39.31 455.88,38.86 m -86,92.19 q 17.83,0 30.91,-5.48 L 398.7,110 c -12.28,4.68 -28.42,5.86 -39.56,2.65 V 69.92 c -1.32,-21.17 24,-13.9 37.44,-11.83 L 398.87,42.2 C 379.38,38.61 346,32 339.18,56.85 c -4,11.74 -4,44.36 0,56.07 4.79,14.87 14.9,17.82 30.73,18.11 M 243.29,109.13 240.11,127 c 21.56,4.61 62.43,12.06 76.2,-9.19 5.33,-8.57 5.53,-29.82 0.62,-38.67 C 308.15,62.5 282.69,64.7 265.19,62.89 V 35.13 c 14.06,-1.85 33.13,-0.68 46.62,1.94 l 2.65,-17.13 C 283.88,14.67 238.68,6.66 241.52,51.73 239,85.27 271.59,82.56 296.8,85.11 v 27.37 c -17.6,2 -36.68,1.28 -53.51,-3.35" />
      <polygon
         style="fill:#ffffff;fill-opacity:1"
         id="polygon835"
         points="81.03,131.54 40.52,131.54 40.52,91.03 0,91.03 0,172.06 81.03,172.06 " />
      <polygon
         style="fill:#ffffff;fill-opacity:1"
         id="polygon837"
         points="172.05,131.54 172.05,0 40.52,0 40.52,91.02 81.03,91.02 81.03,131.54 " />
    </g>
  </g>
</svg>
