<svg xmlns="http://www.w3.org/2000/svg" viewBox="0 0 797.67 172.05"><g id="Ebene_2" data-name="Ebene 2"><g id="Ebene_1-2" data-name="Ebene 1"><path d="M740.06,113.9C743.16,48,725.59,56.12,774.85,56,771.75,121.91,789.32,113.75,740.06,113.9ZM757.37,131c32.49,1.16,40.88-15,40.26-46.1.62-31.23-7.53-47.28-40.26-46.09-32.5-1.16-40.88,15-40.27,46.09-.6,31.09,7.77,47.27,40.27,46.1M639.58,36.72c36.41,1.51,35.63-8.91,34.79,30.91-.21,6.91-4,7.16-11,7.41H639.58Zm62.51,92.36L682.67,88.82c18.17-7.85,16.18-39.47,11.22-54.49-8.35-24.61-56.2-13.12-76-15.62V129.08h21.73V91.64h21.36l17.66,37.44ZM578.48,27.18c10-.17,12.16-2.46,12.36-12.36-.18-9.92-2.42-12.55-12.36-12.71-9.87.17-12.58,2.73-12.72,12.71.17,10,2.8,12.18,12.72,12.36m-11,15.55v86.35h21.72V39.72ZM539.1,113.19V11.64l-21.73,2.65V116.37c-.56,16.68,15.9,16.27,28.79,12.54l1.24-14.66a69.73,69.73,0,0,1-8.3-1.06m-84.24,1.94h-20c-1.42-34.62,2.5-25.36,33.73-26.84V105.6c-.26,8.88-4.77,9.21-13.77,9.53m1.06-76.29c-11.62,0-26.48,1.9-36.91,5.48l2.82,15.54c15.27-4.13,32.82-6.2,46.8-2.65V75.4c-20.84,1.09-38.51-2.34-49.72,10.24-5.6,7.94-5.26,32.8,2.75,39,12.06,11,41,6.85,52.62-4.42l5.65,8.83h10.42V65c-.43-21.91-12.52-25.69-34.43-26.14m-86,92.19q17.83,0,30.91-5.48L398.7,110c-12.28,4.68-28.42,5.86-39.56,2.65V69.92c-1.32-21.17,24-13.9,37.44-11.83l2.29-15.89C379.38,38.61,346,32,339.18,56.85c-4,11.74-4,44.36,0,56.07,4.79,14.87,14.9,17.82,30.73,18.11m-126.62-21.9L240.11,127c21.56,4.61,62.43,12.06,76.2-9.19,5.33-8.57,5.53-29.82.62-38.67-8.78-16.64-34.24-14.44-51.74-16.25V35.13c14.06-1.85,33.13-.68,46.62,1.94l2.65-17.13c-30.58-5.27-75.78-13.28-72.94,31.79C239,85.27,271.59,82.56,296.8,85.11v27.37c-17.6,2-36.68,1.28-53.51-3.35"/><polygon points="40.52 91.03 0 91.03 0 172.06 81.03 172.06 81.03 131.54 40.52 131.54 40.52 91.03"/><polygon points="40.52 0 40.52 91.02 81.03 91.02 81.03 131.54 172.05 131.54 172.05 0 40.52 0"/></g></g></svg>